<?xml version="1.0" standalone="no"?>
<!DOCTYPE svg PUBLIC "-//W3C//DTD SVG 20010904//EN"
 "http://www.w3.org/TR/2001/REC-SVG-20010904/DTD/svg10.dtd">
<svg version="1.0" xmlns="http://www.w3.org/2000/svg"
 width="512.000000pt" height="512.000000pt" viewBox="0 0 512.000000 512.000000"
 preserveAspectRatio="xMidYMid meet">

<g transform="translate(0.000000,512.000000) scale(0.100000,-0.100000)"
fill="#6b6b6b" stroke="none">
<path d="M910 4694 c-234 -50 -436 -254 -485 -489 -22 -106 -22 -1019 0 -1073
63 -150 264 -169 360 -34 l30 44 5 501 c5 544 3 520 64 585 65 70 38 66 593
72 l501 5 44 30 c135 96 116 297 -34 360 -32 13 -106 15 -525 14 -377 0 -503
-4 -553 -15z"/>
<path d="M3130 4694 c-148 -64 -166 -264 -32 -359 l44 -30 501 -5 c544 -5 520
-3 585 -64 70 -65 66 -38 72 -593 l5 -501 30 -44 c96 -135 297 -116 360 34 22
54 22 967 0 1073 -50 238 -252 440 -490 490 -105 22 -1024 21 -1075 -1z"/>
<path d="M1810 3679 c-185 -31 -340 -190 -370 -379 -13 -88 -13 -1393 1 -1480
31 -195 185 -349 379 -380 87 -13 1393 -13 1480 0 194 31 348 185 379 380 14
87 14 1392 1 1480 -31 194 -185 348 -380 379 -81 13 -1411 13 -1490 0z m1452
-416 c17 -15 18 -50 18 -701 0 -624 -1 -687 -17 -704 -15 -17 -50 -18 -701
-18 -624 0 -687 1 -704 17 -17 15 -18 50 -18 701 0 624 1 687 17 704 15 17 50
18 701 18 624 0 687 -1 704 -17z"/>
<path d="M575 2111 c-72 -18 -123 -60 -150 -123 -22 -54 -22 -967 0 -1073 50
-238 252 -440 490 -490 106 -22 1019 -22 1073 0 150 63 169 264 34 360 l-44
30 -501 5 c-555 6 -528 2 -593 72 -61 65 -59 41 -64 585 l-5 501 -30 44 c-49
68 -138 106 -210 89z"/>
<path d="M4463 2110 c-51 -12 -96 -43 -128 -89 l-30 -43 -5 -501 c-5 -544 -3
-520 -64 -585 -65 -70 -38 -66 -593 -72 l-501 -5 -44 -30 c-135 -96 -116 -297
34 -360 54 -22 967 -22 1073 0 238 50 440 252 490 490 22 106 22 1019 0 1073
-38 89 -142 144 -232 122z"/>
</g>
</svg>
