<?xml version="1.0" standalone="no"?>
<!DOCTYPE svg PUBLIC "-//W3C//DTD SVG 20010904//EN"
 "http://www.w3.org/TR/2001/REC-SVG-20010904/DTD/svg10.dtd">
<svg version="1.0" xmlns="http://www.w3.org/2000/svg"
 width="782.000000pt" height="794.000000pt" viewBox="0 0 782.000000 794.000000"
 preserveAspectRatio="xMidYMid meet">

<g transform="translate(0.000000,794.000000) scale(0.100000,-0.100000)"
fill="#6b6b6b" stroke="none">
<path d="M3885 7573 c-52 -8 -117 -33 -190 -72 -112 -61 -186 -102 -248 -137
-32 -19 -60 -34 -62 -34 -2 0 -34 -17 -72 -39 -37 -21 -99 -55 -138 -76 -38
-21 -108 -59 -155 -85 -47 -26 -116 -64 -155 -85 -38 -21 -96 -53 -128 -71
-32 -19 -60 -34 -62 -34 -2 0 -47 -25 -100 -55 -54 -30 -99 -55 -100 -55 -1 0
-46 -25 -100 -55 -53 -30 -98 -55 -100 -55 -2 0 -30 -15 -62 -34 -32 -18 -89
-50 -128 -71 -77 -42 -211 -115 -365 -200 -90 -50 -207 -114 -360 -197 -30
-17 -68 -38 -85 -48 -16 -9 -57 -32 -90 -50 -33 -18 -85 -46 -115 -63 -30 -16
-73 -40 -95 -52 -168 -91 -219 -123 -265 -167 -105 -101 -159 -219 -167 -363
-10 -170 40 -300 161 -420 39 -39 85 -77 101 -85 17 -8 72 -39 124 -67 51 -29
95 -53 96 -53 1 0 45 -24 96 -53 52 -28 106 -58 121 -66 15 -8 25 -17 23 -22
-3 -4 -36 -24 -73 -45 -37 -21 -80 -45 -97 -54 -16 -9 -86 -47 -155 -85 -194
-105 -251 -151 -316 -251 -59 -92 -79 -164 -79 -294 0 -130 20 -202 79 -294
65 -100 122 -146 316 -251 69 -38 139 -76 155 -85 17 -9 60 -33 97 -54 37 -21
70 -41 73 -45 2 -5 -8 -14 -23 -22 -15 -8 -54 -29 -87 -48 -33 -18 -103 -56
-155 -84 -52 -28 -111 -60 -130 -71 -19 -12 -48 -28 -64 -36 -87 -44 -198
-180 -238 -291 -33 -94 -33 -267 1 -359 63 -172 135 -240 411 -387 47 -25 90
-49 95 -53 6 -4 46 -26 90 -50 44 -24 100 -54 125 -68 25 -14 65 -36 90 -50
25 -13 59 -32 75 -42 17 -9 62 -34 100 -55 74 -40 198 -108 365 -200 55 -30
146 -80 203 -111 147 -81 203 -112 280 -155 38 -22 70 -39 72 -39 2 0 30 -15
62 -34 32 -18 87 -49 123 -68 36 -20 146 -80 245 -135 99 -55 218 -120 265
-145 47 -25 114 -62 148 -82 35 -20 65 -36 67 -36 2 0 30 -15 62 -34 32 -18
85 -48 118 -66 250 -137 270 -144 415 -144 150 0 164 5 475 176 55 30 132 72
170 93 39 21 96 53 128 71 32 19 60 34 61 34 2 0 47 25 101 55 53 30 98 55
100 55 1 0 46 25 100 55 53 30 98 55 100 55 2 0 30 15 62 34 32 18 90 50 128
71 39 21 108 59 155 85 47 26 117 64 155 84 39 21 84 46 100 56 17 9 55 31 85
47 30 17 75 41 100 55 40 22 147 81 330 181 30 16 89 49 130 72 41 23 111 62
155 85 44 24 114 62 155 85 41 23 102 57 135 75 33 18 89 49 125 69 36 20 83
45 104 57 259 140 360 468 226 734 -61 120 -148 193 -385 320 -44 24 -114 62
-155 84 -41 23 -87 47 -102 55 -15 8 -25 17 -23 22 5 7 55 36 209 119 274 148
341 194 402 277 80 108 114 209 114 333 0 124 -34 225 -114 333 -61 83 -128
129 -402 277 -221 119 -223 121 -178 145 10 6 60 32 109 59 50 27 119 64 155
84 221 119 303 188 367 307 102 193 79 435 -58 600 -46 55 -114 113 -166 140
-21 11 -63 34 -93 51 -30 17 -86 48 -125 69 -38 21 -104 57 -145 80 -41 23
-111 61 -155 85 -44 23 -114 62 -155 85 -41 23 -100 56 -130 72 -183 100 -290
159 -330 181 -25 14 -70 38 -100 55 -30 16 -68 38 -85 47 -16 10 -61 35 -100
56 -38 20 -108 58 -155 84 -47 26 -116 64 -155 85 -38 21 -96 53 -128 71 -32
19 -60 34 -62 34 -2 0 -34 17 -72 39 -37 21 -99 55 -138 76 -38 21 -128 71
-200 110 -211 117 -401 221 -531 291 -45 25 -104 51 -130 60 -51 15 -206 26
-259 17z m146 -365 c18 -6 76 -36 128 -65 51 -29 95 -53 96 -53 2 0 47 -25
100 -55 54 -30 99 -55 100 -55 2 0 61 -32 131 -71 71 -39 158 -87 194 -107 36
-19 126 -69 200 -110 74 -41 160 -88 190 -105 30 -16 86 -47 123 -68 38 -22
70 -39 72 -39 2 0 30 -15 62 -34 32 -18 88 -49 126 -70 37 -20 97 -52 135 -72
37 -21 93 -52 125 -70 32 -19 60 -34 62 -34 2 0 47 -25 100 -55 54 -30 99 -55
100 -55 1 0 46 -25 100 -55 53 -30 98 -55 100 -55 1 0 46 -25 100 -55 53 -30
98 -55 100 -55 2 0 26 -13 52 -28 26 -16 86 -49 133 -74 295 -160 335 -185
364 -225 52 -74 32 -200 -39 -247 -27 -18 -46 -29 -205 -116 -63 -34 -135 -74
-160 -88 -25 -14 -70 -38 -100 -55 -30 -16 -68 -38 -85 -47 -16 -10 -61 -35
-100 -55 -38 -21 -89 -49 -112 -61 -24 -13 -62 -35 -85 -48 -24 -12 -69 -37
-100 -55 -32 -17 -84 -45 -115 -62 -32 -18 -78 -43 -103 -57 -25 -14 -70 -38
-100 -55 -30 -16 -93 -51 -140 -77 -47 -26 -116 -64 -155 -85 -38 -21 -96 -53
-128 -71 -32 -19 -60 -34 -62 -34 -2 0 -47 -25 -100 -55 -54 -30 -99 -55 -100
-55 -2 0 -34 -17 -72 -39 -100 -56 -230 -128 -448 -246 -38 -21 -96 -53 -128
-71 -32 -19 -60 -34 -62 -34 -2 0 -32 -16 -67 -36 -256 -146 -276 -150 -413
-79 -48 25 -96 52 -108 59 -12 7 -48 28 -79 45 -135 73 -175 95 -203 111 -16
10 -61 35 -100 56 -38 20 -108 58 -155 84 -47 26 -116 64 -155 85 -38 21 -96
53 -128 71 -32 19 -60 34 -62 34 -2 0 -47 25 -100 55 -54 30 -99 55 -100 55
-1 0 -46 25 -100 55 -53 30 -98 55 -100 55 -2 0 -30 15 -62 34 -32 18 -89 50
-128 71 -38 21 -114 62 -168 92 -53 29 -141 77 -195 106 -53 30 -128 71 -167
92 -38 21 -96 53 -128 71 -32 19 -60 34 -62 34 -2 0 -30 15 -62 34 -32 18 -83
47 -113 63 -30 17 -75 41 -100 55 -25 14 -76 42 -115 63 -226 122 -247 143
-248 246 0 51 4 66 29 101 16 22 43 48 59 57 17 9 59 32 95 52 36 20 92 51
125 69 33 18 74 40 90 50 17 9 62 34 100 55 39 21 113 61 165 90 52 29 127 69
165 90 39 21 120 66 180 100 61 34 151 84 200 110 50 26 99 54 110 60 11 7 45
26 75 42 30 17 75 41 100 55 25 14 142 78 260 143 118 65 220 121 225 125 6 4
44 25 85 47 41 22 120 65 175 95 55 30 132 72 170 93 39 21 96 53 128 71 32
19 60 34 62 34 2 0 47 25 100 55 54 30 99 55 100 55 1 0 45 24 97 54 139 78
166 86 229 64z m-2113 -2850 c141 -78 282 -155 312 -171 30 -16 81 -45 113
-63 32 -19 60 -34 62 -34 2 0 34 -17 72 -39 37 -21 100 -55 138 -76 39 -21
111 -61 160 -88 139 -77 433 -238 550 -302 39 -21 96 -53 128 -71 32 -19 60
-34 62 -34 2 0 30 -15 62 -34 204 -118 270 -141 403 -141 124 0 191 23 379
127 154 85 202 111 316 173 39 21 104 57 145 80 41 23 107 59 145 80 39 21 96
53 128 71 32 19 60 34 62 34 2 0 47 25 100 55 54 30 99 55 101 55 1 0 29 15
61 34 32 18 88 49 126 70 37 20 97 52 135 72 37 21 93 52 125 70 32 19 60 34
62 34 2 0 47 25 100 55 54 30 99 55 100 55 2 0 34 17 72 39 174 98 164 94 192
79 14 -7 68 -37 119 -65 52 -29 95 -53 97 -53 2 0 26 -13 52 -28 26 -16 86
-49 133 -74 242 -131 265 -146 294 -186 24 -33 28 -49 28 -102 0 -88 -30 -129
-142 -190 -47 -25 -134 -73 -195 -107 -60 -33 -141 -77 -180 -98 -38 -21 -96
-53 -128 -71 -32 -19 -60 -34 -61 -34 -2 0 -47 -25 -101 -55 -53 -30 -98 -55
-100 -55 -2 0 -30 -15 -62 -34 -32 -18 -83 -47 -113 -63 -30 -16 -152 -83
-270 -148 -118 -65 -240 -131 -270 -148 -30 -16 -86 -47 -123 -68 -38 -22 -70
-39 -72 -39 -2 0 -30 -15 -62 -34 -32 -18 -83 -47 -113 -63 -30 -17 -75 -41
-100 -55 -49 -27 -127 -70 -217 -119 -32 -18 -71 -40 -88 -49 -16 -10 -56 -32
-87 -49 -32 -17 -84 -45 -115 -62 -32 -17 -80 -44 -108 -59 -248 -140 -318
-173 -366 -173 -41 0 -99 26 -248 110 -51 29 -95 53 -96 53 -2 0 -47 25 -100
55 -54 30 -99 55 -101 55 -1 0 -29 15 -61 34 -32 18 -89 50 -128 71 -38 21
-113 61 -165 90 -52 29 -126 69 -165 90 -38 21 -96 53 -128 71 -32 19 -60 34
-62 34 -2 0 -47 25 -100 55 -54 30 -99 55 -100 55 -1 0 -46 25 -100 55 -53 30
-98 55 -100 55 -1 0 -46 25 -100 55 -53 30 -98 55 -100 55 -2 0 -30 15 -62 34
-32 18 -89 50 -128 71 -38 21 -108 59 -155 85 -47 26 -116 64 -155 84 -38 21
-83 46 -100 56 -16 9 -55 31 -85 47 -30 17 -75 41 -100 55 -25 14 -72 40 -105
58 -313 169 -327 181 -327 290 0 82 29 125 114 172 35 20 86 48 113 63 113 62
125 69 310 171 33 18 92 51 130 72 39 22 74 40 78 41 4 1 123 -63 265 -141z
m-22 -1449 c132 -72 268 -147 304 -166 36 -20 96 -53 133 -74 38 -22 70 -39
72 -39 2 0 30 -15 62 -34 32 -18 83 -47 113 -63 30 -17 75 -41 100 -55 66 -37
466 -256 530 -291 30 -16 69 -38 85 -47 17 -10 62 -35 100 -55 39 -21 90 -49
115 -63 25 -14 70 -38 100 -55 30 -16 69 -38 86 -48 17 -10 62 -31 100 -45 58
-23 86 -27 174 -28 137 -1 199 18 380 120 36 20 103 57 150 82 47 25 107 58
133 74 26 15 50 28 52 28 2 0 47 25 100 55 54 30 99 55 100 55 2 0 47 25 100
55 54 30 99 55 100 55 1 0 46 25 100 55 53 30 98 55 100 55 2 0 30 15 62 34
32 18 90 50 128 71 218 118 348 190 448 246 38 22 70 39 72 39 1 0 46 25 100
55 53 30 98 55 100 55 2 0 28 14 56 31 58 34 48 36 159 -27 30 -17 80 -45 110
-61 30 -17 75 -41 100 -55 25 -14 97 -54 160 -88 159 -87 178 -98 205 -116 71
-47 91 -173 39 -247 -29 -40 -69 -65 -364 -225 -47 -25 -107 -58 -133 -74 -26
-15 -50 -28 -52 -28 -2 0 -47 -25 -100 -55 -54 -30 -99 -55 -100 -55 -2 0 -47
-25 -100 -55 -54 -30 -99 -55 -100 -55 -2 0 -34 -17 -72 -39 -100 -56 -230
-128 -448 -246 -38 -21 -96 -53 -128 -71 -32 -19 -60 -34 -62 -34 -2 0 -47
-25 -100 -55 -54 -30 -99 -55 -100 -55 -1 0 -46 -25 -100 -55 -53 -30 -98 -55
-100 -55 -1 0 -46 -25 -100 -55 -53 -30 -98 -55 -100 -55 -2 0 -30 -15 -62
-34 -32 -18 -89 -50 -128 -71 -101 -55 -171 -93 -248 -136 -38 -22 -70 -39
-72 -39 -1 0 -46 -25 -99 -55 -124 -70 -163 -82 -216 -66 -22 6 -83 36 -136
66 -53 30 -98 55 -99 55 -1 0 -46 25 -100 55 -53 30 -98 55 -100 55 -2 0 -30
15 -62 34 -32 18 -89 50 -128 71 -129 70 -270 147 -315 172 -25 14 -160 88
-300 166 -140 77 -275 151 -300 165 -25 14 -70 38 -100 55 -30 16 -81 45 -113
63 -32 19 -60 34 -61 34 -2 0 -62 32 -132 71 -71 39 -158 87 -194 107 -36 19
-78 43 -95 52 -31 19 -187 104 -315 173 -41 22 -79 43 -85 47 -5 4 -48 28 -95
53 -220 118 -245 134 -274 175 -24 34 -29 51 -29 100 0 103 22 125 248 247 39
21 90 49 115 63 25 14 70 38 100 55 30 16 69 38 85 47 17 10 62 35 100 55 39
21 74 42 80 46 5 5 12 9 16 9 3 0 114 -59 245 -131z"/>
</g>
</svg>
