<?xml version="1.0" standalone="no"?>
<!DOCTYPE svg PUBLIC "-//W3C//DTD SVG 20010904//EN"
 "http://www.w3.org/TR/2001/REC-SVG-20010904/DTD/svg10.dtd">
<svg version="1.0" xmlns="http://www.w3.org/2000/svg"
 width="512.000000pt" height="512.000000pt" viewBox="0 0 512.000000 512.000000"
 preserveAspectRatio="xMidYMid meet">

<g transform="translate(0.000000,512.000000) scale(0.100000,-0.100000)"
fill="#6b6b6b" stroke="none">
<path d="M3337 4396 c-78 -29 -141 -96 -167 -180 -17 -52 -8 -152 18 -201 11
-22 79 -98 151 -170 72 -71 131 -133 131 -137 0 -4 -417 -9 -927 -10 l-928 -4
-94 -27 c-320 -93 -570 -301 -711 -591 -70 -144 -100 -261 -107 -421 -5 -120
-4 -134 17 -182 25 -59 89 -124 147 -149 21 -9 67 -17 104 -17 52 -1 76 4 122
26 99 49 144 125 157 266 13 143 40 218 114 319 65 88 174 164 291 203 32 11
284 15 1300 19 l1260 5 46 23 c56 27 111 81 135 131 11 20 20 67 22 109 7 127
4 131 -432 570 -271 273 -393 389 -426 404 -56 28 -167 35 -223 14z m156 -130
c39 -17 758 -738 781 -783 31 -61 11 -143 -42 -180 -26 -17 -93 -18 -1277 -24
-974 -4 -1261 -8 -1300 -18 -27 -7 -86 -30 -130 -51 -236 -110 -380 -314 -404
-574 -5 -52 -17 -108 -26 -125 -48 -94 -190 -95 -247 -2 -39 63 -19 261 43
421 103 267 313 473 585 576 159 59 111 57 1202 63 1101 7 1022 1 1022 66 0
26 -26 56 -186 215 -102 102 -195 203 -206 224 -36 71 -11 148 62 187 41 23
79 24 123 5z"/>
<path d="M4077 2806 c-108 -30 -191 -126 -201 -235 -15 -146 -27 -198 -67
-280 -52 -105 -135 -191 -234 -243 -129 -67 -32 -62 -1410 -68 l-1260 -5 -46
-23 c-56 -27 -111 -81 -135 -131 -11 -20 -20 -67 -22 -109 -7 -123 -7 -123
445 -574 393 -391 399 -397 457 -413 133 -38 264 17 329 139 29 56 31 182 2
241 -10 22 -79 102 -153 177 l-135 137 919 3 919 3 97 27 c256 70 468 211 618
410 142 188 222 414 224 633 1 101 -1 114 -26 161 -65 123 -196 184 -321 150z
m145 -143 c52 -31 71 -75 70 -161 -6 -272 -145 -550 -365 -727 -101 -81 -249
-156 -382 -192 l-100 -27 -1003 -6 c-979 -5 -1004 -5 -1018 -24 -8 -11 -14
-29 -14 -40 0 -12 72 -92 194 -215 106 -108 199 -206 205 -219 31 -59 5 -147
-52 -182 -38 -24 -107 -26 -145 -6 -41 22 -759 747 -771 779 -24 63 -3 140 47
174 26 17 92 18 1277 23 1154 5 1255 7 1310 23 301 88 496 319 524 621 10 106
28 148 74 176 40 25 109 26 149 3z"/>
</g>
</svg>
